<svg width="264" height="253" viewBox="0 0 264 253" fill="none" xmlns="http://www.w3.org/2000/svg">
<g clip-path="url(#paint0_diamond_306_51_clip_path)" data-figma-skip-parse="true"><g transform="matrix(0 0.126054 -0.132 0 132 126.054)"><rect x="0" y="0" width="1001.2" height="1001.14" fill="url(#paint0_diamond_306_51)" opacity="1" shape-rendering="crispEdges"/><rect x="0" y="0" width="1001.2" height="1001.14" transform="scale(1 -1)" fill="url(#paint0_diamond_306_51)" opacity="1" shape-rendering="crispEdges"/><rect x="0" y="0" width="1001.2" height="1001.14" transform="scale(-1 1)" fill="url(#paint0_diamond_306_51)" opacity="1" shape-rendering="crispEdges"/><rect x="0" y="0" width="1001.2" height="1001.14" transform="scale(-1)" fill="url(#paint0_diamond_306_51)" opacity="1" shape-rendering="crispEdges"/></g></g><path d="M141.43 0H122.571V104.317L45.3289 30.5536L31.9949 43.2871L109.237 117.05H0V135.058H109.237L31.9949 208.821L45.3289 221.554L122.571 147.791V252.109H141.43V147.791L218.671 221.554L232.004 208.821L154.763 135.058H264V117.05H154.763L232.004 43.287L218.671 30.5536L141.43 104.317V0Z" data-figma-gradient-fill="{&#34;type&#34;:&#34;GRADIENT_DIAMOND&#34;,&#34;stops&#34;:[{&#34;color&#34;:{&#34;r&#34;:0.64313727617263794,&#34;g&#34;:0.34901961684226990,&#34;b&#34;:0.88235294818878174,&#34;a&#34;:1.0},&#34;position&#34;:0.42788460850715637},{&#34;color&#34;:{&#34;r&#34;:0.94117647409439087,&#34;g&#34;:0.80392158031463623,&#34;b&#34;:1.0,&#34;a&#34;:1.0},&#34;position&#34;:0.86538463830947876}],&#34;stopsVar&#34;:[{&#34;color&#34;:{&#34;r&#34;:0.64313727617263794,&#34;g&#34;:0.34901961684226990,&#34;b&#34;:0.88235294818878174,&#34;a&#34;:1.0},&#34;position&#34;:0.42788460850715637},{&#34;color&#34;:{&#34;r&#34;:0.94117647409439087,&#34;g&#34;:0.80392158031463623,&#34;b&#34;:1.0,&#34;a&#34;:1.0},&#34;position&#34;:0.86538463830947876}],&#34;transform&#34;:{&#34;m00&#34;:1.6165339195278045e-14,&#34;m01&#34;:-264.0,&#34;m02&#34;:264.0,&#34;m10&#34;:252.10885620117188,&#34;m11&#34;:1.5437216121291092e-14,&#34;m12&#34;:-1.5437216121291092e-14},&#34;opacity&#34;:1.0,&#34;blendMode&#34;:&#34;NORMAL&#34;,&#34;visible&#34;:true}"/>
<defs>
<clipPath id="paint0_diamond_306_51_clip_path"><path d="M141.43 0H122.571V104.317L45.3289 30.5536L31.9949 43.2871L109.237 117.05H0V135.058H109.237L31.9949 208.821L45.3289 221.554L122.571 147.791V252.109H141.43V147.791L218.671 221.554L232.004 208.821L154.763 135.058H264V117.05H154.763L232.004 43.287L218.671 30.5536L141.43 104.317V0Z"/></clipPath><linearGradient id="paint0_diamond_306_51" x1="0" y1="0" x2="500" y2="500" gradientUnits="userSpaceOnUse">
<stop offset="0.427885" stop-color="#A459E1"/>
<stop offset="0.865385" stop-color="#F0CDFF"/>
</linearGradient>
</defs>
</svg>
